<svg width="286" height="220" viewBox="0 0 286 220" fill="none" xmlns="http://www.w3.org/2000/svg">
<g filter="url(#filter0_d_145_361)">
<path d="M74.6819 40.4717L74.4673 40.0201L74.6819 40.4717ZM7.32833 211.325C7.52359 211.52 7.84018 211.52 8.03544 211.325L11.2174 208.143C11.4127 207.948 11.4127 207.631 11.2174 207.436C11.0222 207.241 10.7056 207.241 10.5103 207.436L7.68188 210.265L4.85345 207.436C4.65819 207.241 4.34161 207.241 4.14635 207.436C3.95109 207.631 3.95109 207.948 4.14635 208.143L7.32833 211.325ZM7.68188 210.972H8.18188C8.18188 210.282 8.1824 209.594 8.18345 208.91L7.68345 208.909L7.18345 208.908C7.1824 209.593 7.18188 210.281 7.18188 210.972H7.68188ZM7.69621 204.829L8.1962 204.831C8.20271 203.468 8.21149 202.116 8.22266 200.773L7.72267 200.769L7.22269 200.765C7.21152 202.109 7.20273 203.463 7.19622 204.827L7.69621 204.829ZM7.76454 196.679L8.2645 196.685C8.28112 195.325 8.30037 193.975 8.32238 192.636L7.82244 192.628L7.32251 192.62C7.30048 193.96 7.28121 195.311 7.26457 196.673L7.76454 196.679ZM7.89919 188.532L8.39908 188.542C8.42776 187.183 8.45951 185.835 8.49444 184.498L7.99461 184.485L7.49478 184.472C7.4598 185.811 7.42802 187.16 7.3993 188.521L7.89919 188.532ZM8.11292 180.387L8.61266 180.403C8.65575 179.043 8.7024 177.695 8.75274 176.359L8.25309 176.34L7.75345 176.322C7.70303 177.66 7.65631 179.01 7.61317 180.371L8.11292 180.387ZM8.42066 172.246L8.92017 172.269C8.98046 170.907 9.04488 169.558 9.1136 168.222L8.61426 168.196L8.11492 168.17C8.04607 169.509 7.98154 170.861 7.92115 172.224L8.42066 172.246ZM8.83999 164.112L9.33911 164.142C9.41993 162.778 9.50556 161.427 9.5962 160.089L9.09735 160.055L8.59849 160.022C8.50765 161.362 8.42184 162.716 8.34086 164.083L8.83999 164.112ZM9.39148 155.989L9.89 156.027C9.99532 154.661 10.1063 153.308 10.2231 151.968L9.72494 151.925L9.22683 151.882C9.10975 153.224 8.99853 154.581 8.89296 155.951L9.39148 155.989ZM10.0993 147.884L10.5969 147.933C10.7314 146.564 10.8725 145.209 11.0205 143.869L10.5235 143.814L10.0265 143.759C9.87811 145.103 9.73657 146.462 9.60166 147.835L10.0993 147.884ZM10.9941 139.787L11.4903 139.848C11.6589 138.484 11.835 137.135 12.019 135.802L11.5237 135.734L11.0284 135.665C10.8437 137.003 10.667 138.357 10.4979 139.725L10.9941 139.787ZM12.1119 131.701L12.606 131.777C12.8133 130.431 13.0292 129.1 13.2541 127.786L12.7613 127.701L12.2685 127.617C12.0426 128.937 11.8257 130.273 11.6177 131.625L12.1119 131.701ZM13.4888 123.671L13.98 123.765C14.2358 122.42 14.5018 121.093 14.7783 119.783L14.2891 119.68L13.7999 119.576C13.5219 120.893 13.2546 122.227 12.9976 123.578L13.4888 123.671ZM15.1688 115.722L15.6557 115.835C15.9687 114.497 16.2938 113.176 16.6312 111.874L16.1472 111.748L15.6632 111.623C15.3237 112.933 14.9968 114.261 14.6819 115.608L15.1688 115.722ZM17.2192 107.817L17.6998 107.955C18.0758 106.643 18.4654 105.351 18.8691 104.078L18.3924 103.927L17.9158 103.775C17.5092 105.058 17.117 106.359 16.7385 107.679L17.2192 107.817ZM19.6806 100.063L20.1524 100.228C20.6049 98.9368 21.0732 97.6654 21.5578 96.4136L21.0915 96.2331L20.6252 96.0525C20.1366 97.3147 19.6646 98.5962 19.2087 99.8975L19.6806 100.063ZM22.6267 92.4605L23.0865 92.657C23.6215 91.4054 24.1744 90.1741 24.7458 88.9628L24.2935 88.7495L23.8413 88.5362C23.2646 89.7589 22.7067 91.0013 22.1669 92.2639L22.6267 92.4605ZM26.0989 85.1055L26.5425 85.3363C27.1707 84.1284 27.8192 82.9412 28.4883 81.7741L28.0546 81.5254L27.6208 81.2767C26.9447 82.4559 26.2898 83.6551 25.6554 84.8748L26.0989 85.1055ZM30.1556 78.0344L30.5784 78.3014C31.3016 77.1559 32.047 76.0307 32.815 74.925L32.4043 74.6398L31.9937 74.3545C31.2172 75.4723 30.4638 76.6098 29.7328 77.7674L30.1556 78.0344ZM34.8013 71.3487L35.1987 71.6521C36.0181 70.5786 36.8611 69.5245 37.7284 68.489L37.3451 68.168L36.9618 67.8469C36.0848 68.894 35.2323 69.9599 34.4038 71.0454L34.8013 71.3487ZM40.0313 65.1047L40.3997 65.4428C41.3094 64.4515 42.2436 63.4781 43.2031 62.5222L42.8502 62.168L42.4973 61.8138C41.5273 62.7802 40.5827 63.7643 39.6629 64.7666L40.0313 65.1047ZM45.7959 59.3591L46.133 59.7284C47.1243 58.8235 48.1406 57.9348 49.1823 57.0617L48.8611 56.6785L48.54 56.2953C47.4876 57.1773 46.4607 58.0753 45.4588 58.9899L45.7959 59.3591ZM52.0388 54.1245L52.3441 54.5205C53.407 53.701 54.4946 52.8959 55.6074 52.1048L55.3177 51.6973L55.028 51.2897C53.9048 52.0883 52.8068 52.9011 51.7335 53.7286L52.0388 54.1245ZM58.6721 49.4044L58.9468 49.8222C60.064 49.0878 61.205 48.3659 62.3704 47.656L62.1103 47.229L61.8502 46.802C60.6752 47.5177 59.5245 48.2457 58.3975 48.9865L58.6721 49.4044ZM65.6277 45.1642L65.8739 45.5994C67.0414 44.9389 68.2317 44.2892 69.4455 43.65L69.2125 43.2076L68.9795 42.7652C67.7571 43.409 66.5579 44.0635 65.3815 44.7291L65.6277 45.1642ZM72.8284 41.3676L73.049 41.8163C73.6593 41.5163 74.2751 41.2186 74.8965 40.9233L74.6819 40.4717L74.4673 40.0201C73.8419 40.3173 73.2221 40.6169 72.6078 40.9189L72.8284 41.3676ZM74.6819 40.4717L74.8965 40.9233C75.505 40.6341 76.1162 40.3505 76.7299 40.0725L76.5236 39.6171L76.3172 39.1616C75.698 39.4421 75.0814 39.7282 74.4673 40.0201L74.6819 40.4717ZM80.2513 38.0079L80.4414 38.4704C81.6866 37.9586 82.9421 37.4676 84.2081 36.9962L84.0336 36.5276L83.8592 36.059C82.583 36.5342 81.317 37.0293 80.0612 37.5455L80.2513 38.0079ZM87.8586 35.1723L88.0182 35.6461C89.2917 35.2171 90.5755 34.8061 91.8695 34.412L91.7238 33.9336L91.5782 33.4553C90.2751 33.8522 88.982 34.2662 87.699 34.6984L87.8586 35.1723ZM95.6255 32.8039L95.7581 33.286C97.0552 32.9291 98.3624 32.5877 99.6796 32.2605L99.5591 31.7752L99.4385 31.29C98.1135 31.6191 96.7983 31.9627 95.4929 32.3218L95.6255 32.8039ZM103.505 30.8431L103.615 31.331C104.924 31.037 106.244 30.7556 107.573 30.4858L107.474 29.9958L107.374 29.5058C106.039 29.7769 104.712 30.0597 103.396 30.3553L103.505 30.8431ZM111.464 29.225L111.555 29.7168C112.877 29.4738 114.209 29.2409 115.55 29.0171L115.468 28.5239L115.386 28.0308C114.039 28.2553 112.702 28.4892 111.374 28.7333L111.464 29.225ZM119.471 27.8867L119.546 28.381C120.875 28.1792 122.212 27.9853 123.559 27.7982L123.49 27.303L123.421 26.8077C122.071 26.9953 120.729 27.1899 119.396 27.3924L119.471 27.8867ZM127.524 26.7657L127.587 27.2617C128.918 27.0917 130.258 26.9273 131.606 26.7679L131.547 26.2713L131.489 25.7748C130.137 25.9346 128.795 26.0993 127.46 26.2697L127.524 26.7657ZM135.579 25.811L135.634 26.308C136.973 26.1602 138.321 26.0163 139.676 25.8755L139.625 25.3782L139.573 24.8808C138.215 25.0219 136.866 25.166 135.524 25.314L135.579 25.811ZM143.661 24.9696L143.71 25.4671C145.047 25.335 146.393 25.205 147.746 25.0764L147.699 24.5786L147.652 24.0809C146.297 24.2096 144.95 24.3397 143.611 24.472L143.661 24.9696ZM151.751 24.1993L151.797 24.6971C153.135 24.5735 154.481 24.4505 155.834 24.3274L155.789 23.8295L155.743 23.3315C154.39 23.4546 153.044 23.5777 151.705 23.7014L151.751 24.1993ZM159.831 23.463L159.876 23.961C161.221 23.8393 162.574 23.7168 163.933 23.5929L163.888 23.095L163.843 22.597C162.483 22.7209 161.131 22.8433 159.786 22.9651L159.831 23.463ZM167.919 22.7252L167.965 23.223C169.307 23.0988 170.656 22.9727 172.012 22.844L171.965 22.3462L171.918 21.8485C170.563 21.9771 169.214 22.1031 167.873 22.2273L167.919 22.7252ZM176.011 21.9562L176.06 22.4538C177.398 22.3226 178.743 22.1884 180.095 22.0505L180.044 21.5531L179.994 21.0557C178.643 21.1934 177.299 21.3275 175.962 21.4586L176.011 21.9562ZM184.094 21.1311L184.147 21.6283C185.484 21.4858 186.827 21.3393 188.177 21.1884L188.121 20.6915L188.066 20.1946C186.718 20.3453 185.376 20.4916 184.041 20.6339L184.094 21.1311ZM192.158 20.2282L192.217 20.7248C193.556 20.5671 194.902 20.4045 196.254 20.2365L196.192 19.7403L196.131 19.2441C194.781 19.4118 193.437 19.5742 192.1 19.7317L192.158 20.2282ZM200.214 19.2265L200.279 19.7222C201.62 19.5462 202.967 19.3644 204.321 19.1765L204.252 18.6812L204.183 18.186C202.832 18.3736 201.488 18.555 200.149 18.7308L200.214 19.2265ZM208.258 18.109L208.331 18.6037C209.668 18.4072 211.011 18.2044 212.361 17.9947L212.284 17.5006L212.207 17.0065C210.861 17.2158 209.52 17.4182 208.185 17.6143L208.258 18.109ZM216.284 16.8612L216.365 17.3546C217.697 17.1357 219.035 16.9099 220.379 16.6766L220.293 16.184L220.208 15.6913C218.867 15.9241 217.532 16.1494 216.203 16.3678L216.284 16.8612ZM224.288 15.4711L224.378 15.9629C225.705 15.7198 227.036 15.4692 228.374 15.2106L228.279 14.7197L228.184 14.2288C226.85 14.4867 225.521 14.7368 224.198 14.9793L224.288 15.4711ZM232.264 13.9286L232.364 14.4185C233.684 14.1497 235.009 13.8729 236.34 13.5877L236.235 13.0988L236.13 12.6099C234.803 12.8944 233.481 13.1705 232.165 13.4387L232.264 13.9286ZM240.208 12.2257L240.318 12.7135C241.63 12.4177 242.949 12.1136 244.272 11.8008L244.157 11.3142L244.042 10.8276C242.722 11.1396 241.407 11.4429 240.098 11.7379L240.208 12.2257ZM248.113 10.3563L248.233 10.8416C249.538 10.5179 250.849 10.1856 252.164 9.84429L252.039 9.36032L251.913 8.87635C250.601 9.21676 249.294 9.54819 247.992 9.87096L248.113 10.3563ZM255.974 8.31587L256.105 8.79842C257.403 8.4462 258.705 8.08501 260.013 7.71455L259.876 7.23349L259.74 6.75243C258.436 7.12187 257.137 7.48207 255.843 7.83332L255.974 8.31587ZM263.787 6.1016L263.928 6.58109C265.218 6.19975 266.513 5.80921 267.812 5.40918L267.665 4.93132L267.518 4.45346C266.222 4.85238 264.931 5.24183 263.645 5.62211L263.787 6.1016ZM271.546 3.71195L271.699 4.1881C272.981 3.77726 274.267 3.35702 275.558 2.9271L275.4 2.45272L275.242 1.97834C273.955 2.40705 272.672 2.82611 271.394 3.2358L271.546 3.71195ZM279.248 1.1466L279.412 1.61915C280.056 1.39631 280.701 1.17103 281.348 0.943274L281.182 0.47168L281.016 8.56817e-05C280.371 0.227204 279.727 0.451851 279.085 0.674058L279.248 1.1466Z" fill="black"/>
</g>
<defs>
<filter id="filter0_d_145_361" x="0" y="0" width="285.348" height="219.472" filterUnits="userSpaceOnUse" color-interpolation-filters="sRGB">
<feFlood flood-opacity="0" result="BackgroundImageFix"/>
<feColorMatrix in="SourceAlpha" type="matrix" values="0 0 0 0 0 0 0 0 0 0 0 0 0 0 0 0 0 0 127 0" result="hardAlpha"/>
<feOffset dy="4"/>
<feGaussianBlur stdDeviation="2"/>
<feComposite in2="hardAlpha" operator="out"/>
<feColorMatrix type="matrix" values="0 0 0 0 0 0 0 0 0 0 0 0 0 0 0 0 0 0 0.25 0"/>
<feBlend mode="normal" in2="BackgroundImageFix" result="effect1_dropShadow_145_361"/>
<feBlend mode="normal" in="SourceGraphic" in2="effect1_dropShadow_145_361" result="shape"/>
</filter>
</defs>
</svg>
