<svg width="540" height="281" viewBox="0 0 540 281" fill="none" xmlns="http://www.w3.org/2000/svg">
<g filter="url(#filter0_d_970_225)">
<path d="M336.535 68.9213L336.576 69.4195L336.535 68.9213ZM535.533 271.374C535.559 271.649 535.357 271.893 535.082 271.919L530.602 272.344C530.327 272.37 530.083 272.169 530.057 271.894C530.031 271.619 530.233 271.375 530.508 271.349L534.49 270.971L534.112 266.989C534.086 266.714 534.287 266.47 534.562 266.444C534.837 266.418 535.081 266.619 535.107 266.894L535.533 271.374ZM535.035 271.421L534.716 271.807C534.191 271.373 533.672 270.936 533.157 270.497L533.482 270.117L533.806 269.736C534.317 270.172 534.833 270.605 535.353 271.036L535.035 271.421ZM530.466 267.46L530.13 267.83C529.141 266.931 528.171 266.022 527.221 265.103L527.569 264.743L527.916 264.384C528.859 265.296 529.821 266.198 530.802 267.09L530.466 267.46ZM524.717 261.898L524.358 262.246C523.422 261.282 522.504 260.308 521.606 259.325L521.975 258.987L522.344 258.65C523.236 259.626 524.146 260.593 525.076 261.55L524.717 261.898ZM519.325 255.996L518.945 256.322C518.067 255.3 517.207 254.268 516.365 253.228L516.754 252.913L517.142 252.599C517.978 253.632 518.832 254.656 519.704 255.67L519.325 255.996ZM514.291 249.778L513.893 250.081C513.076 249.01 512.277 247.929 511.494 246.841L511.9 246.549L512.306 246.258C513.083 247.338 513.877 248.411 514.688 249.475L514.291 249.778ZM509.61 243.27L509.196 243.55C508.443 242.44 507.706 241.323 506.985 240.198L507.406 239.928L507.827 239.658C508.544 240.776 509.275 241.886 510.024 242.989L509.61 243.27ZM505.286 236.527L504.859 236.786C504.165 235.642 503.486 234.49 502.822 233.333L503.255 233.084L503.689 232.835C504.35 233.986 505.024 235.13 505.714 236.268L505.286 236.527ZM501.298 229.584L500.859 229.823C500.219 228.647 499.592 227.465 498.978 226.279L499.423 226.049L499.867 225.819C500.477 227 501.101 228.175 501.737 229.345L501.298 229.584ZM497.618 222.472L497.169 222.693C496.578 221.492 495.999 220.285 495.431 219.075L495.883 218.863L496.336 218.65C496.902 219.855 497.478 221.056 498.067 222.251L497.618 222.472ZM494.214 215.224L493.758 215.428C493.21 214.206 492.673 212.981 492.145 211.752L492.604 211.555L493.064 211.357C493.59 212.581 494.125 213.802 494.671 215.019L494.214 215.224ZM491.052 207.866L490.59 208.057C490.079 206.819 489.577 205.578 489.083 204.335L489.548 204.151L490.013 203.966C490.505 205.205 491.005 206.442 491.514 207.676L491.052 207.866ZM488.092 200.421L487.625 200.601C487.146 199.351 486.673 198.1 486.207 196.848L486.676 196.674L487.144 196.499C487.609 197.748 488.08 198.996 488.559 200.242L488.092 200.421ZM485.296 192.913L484.825 193.084C484.37 191.827 483.921 190.569 483.476 189.312L483.947 189.145L484.419 188.978C484.863 190.233 485.311 191.489 485.766 192.743L485.296 192.913ZM482.622 185.361L482.149 185.525C481.711 184.263 481.277 183.001 480.846 181.741L481.319 181.58L481.793 181.418C482.223 182.677 482.657 183.937 483.094 185.197L482.622 185.361ZM480.028 177.781L479.554 177.942C479.125 176.675 478.699 175.411 478.274 174.149L478.748 173.989L479.222 173.83C479.647 175.092 480.073 176.355 480.501 177.621L480.028 177.781ZM477.47 170.192L476.996 170.351C476.569 169.083 476.142 167.817 475.715 166.555L476.189 166.395L476.663 166.234C477.09 167.497 477.517 168.763 477.944 170.032L477.47 170.192ZM474.902 162.608L474.429 162.77C473.996 161.501 473.561 160.236 473.124 158.977L473.596 158.813L474.069 158.649C474.506 159.91 474.942 161.176 475.376 162.446L474.902 162.608ZM472.276 155.046L471.805 155.212C471.357 153.947 470.905 152.687 470.45 151.433L470.92 151.262L471.39 151.091C471.846 152.348 472.299 153.611 472.748 154.879L472.276 155.046ZM469.537 147.512L469.068 147.688C468.598 146.433 468.123 145.185 467.641 143.944L468.107 143.763L468.573 143.582C469.056 144.827 469.533 146.079 470.005 147.337L469.537 147.512ZM466.632 140.043L466.169 140.23C465.667 138.991 465.158 137.759 464.64 136.537L465.101 136.342L465.561 136.147C466.081 137.375 466.592 138.611 467.096 139.855L466.632 140.043ZM463.505 132.666L463.048 132.869C462.505 131.65 461.952 130.441 461.389 129.243L461.841 129.03L462.294 128.818C462.86 130.022 463.416 131.237 463.961 132.462L463.505 132.666ZM460.093 125.419L459.645 125.642C459.051 124.45 458.444 123.27 457.824 122.102L458.266 121.868L458.707 121.633C459.331 122.809 459.942 123.996 460.54 125.195L460.093 125.419ZM456.333 118.348L455.898 118.595C455.242 117.439 454.57 116.296 453.883 115.167L454.31 114.907L454.737 114.647C455.43 115.785 456.106 116.936 456.768 118.101L456.333 118.348ZM452.165 111.514L451.747 111.788C451.018 110.677 450.271 109.58 449.506 108.5L449.914 108.211L450.322 107.922C451.094 109.012 451.848 110.118 452.583 111.239L452.165 111.514ZM447.534 104.986L447.138 105.291C446.329 104.238 445.499 103.201 444.648 102.183L445.032 101.862L445.415 101.541C446.275 102.571 447.113 103.618 447.931 104.682L447.534 104.986ZM442.403 98.8481L442.033 99.1849C441.14 98.2041 440.223 97.2417 439.283 96.2986L439.637 95.9456L439.992 95.5926C440.942 96.5466 441.869 97.5197 442.772 98.5114L442.403 98.8481ZM436.755 93.1833L436.417 93.5522C435.44 92.6584 434.439 91.784 433.412 90.9299L433.732 90.5455L434.051 90.161C435.091 91.0254 436.104 91.9101 437.092 92.8144L436.755 93.1833ZM430.605 88.0682L430.304 88.4674C429.25 87.6728 428.171 86.8981 427.065 86.1441L427.347 85.731L427.628 85.3179C428.747 86.0809 429.839 86.8648 430.906 87.669L430.605 88.0682ZM423.992 83.5583L423.73 83.9842C422.613 83.297 421.469 82.6296 420.298 81.9826L420.54 81.545L420.782 81.1074C421.966 81.7618 423.123 82.437 424.254 83.1323L423.992 83.5583ZM416.976 79.6795L416.754 80.1276C415.588 79.5508 414.397 78.993 413.18 78.4547L413.383 77.9975L413.585 77.5402C414.815 78.0842 416.019 78.6481 417.197 79.2314L416.976 79.6795ZM409.633 76.4339L409.45 76.8994C408.25 76.4281 407.025 75.9749 405.775 75.5401L405.939 75.0678L406.104 74.5956C407.366 75.0346 408.603 75.4924 409.816 75.9685L409.633 76.4339ZM402.116 73.8191L401.969 74.2972C400.713 73.9129 399.433 73.5463 398.128 73.1978L398.257 72.7147L398.386 72.2317C399.702 72.5832 400.994 72.9531 402.262 73.3409L402.116 73.8191ZM394.416 71.7579L394.303 72.245C393.005 71.9443 391.684 71.6606 390.34 71.3943L390.437 70.9038L390.534 70.4133C391.889 70.6817 393.221 70.9676 394.529 71.2708L394.416 71.7579ZM386.547 70.1935L386.465 70.6866C385.179 70.471 383.872 70.2706 382.544 70.0857L382.613 69.5905L382.682 69.0953C384.019 69.2814 385.335 69.4832 386.63 69.7004L386.547 70.1935ZM378.551 69.0808L378.495 69.5777C377.216 69.4343 375.917 69.3047 374.599 69.189L374.643 68.6909L374.687 68.1928C376.012 68.3092 377.319 68.4396 378.607 68.5839L378.551 69.0808ZM370.676 68.3889L370.644 68.8879C369.306 68.8012 367.95 68.7284 366.573 68.6697L366.595 68.1702L366.616 67.6706C367.999 67.7297 369.363 67.8028 370.708 67.8899L370.676 68.3889ZM362.637 68.0413L362.625 68.5412C361.329 68.5119 360.015 68.4946 358.685 68.4894L358.687 67.9894L358.689 67.4894C360.025 67.4946 361.345 67.512 362.648 67.5415L362.637 68.0413ZM354.635 68.0109L354.642 68.5109C353.306 68.5299 351.953 68.5609 350.584 68.6038L350.568 68.1041L350.552 67.6043C351.927 67.5612 353.286 67.5301 354.628 67.511L354.635 68.0109ZM346.671 68.2568L346.694 68.7563C345.383 68.8177 344.057 68.8899 342.715 68.9728L342.684 68.4738L342.653 67.9747C344 67.8915 345.331 67.8191 346.647 67.7574L346.671 68.2568ZM338.607 68.7557L338.646 69.2542C337.96 69.3066 337.27 69.3617 336.576 69.4195L336.535 68.9213L336.493 68.423C337.189 68.3649 337.881 68.3097 338.569 68.2571L338.607 68.7557ZM336.535 68.9213L336.576 69.4195C335.893 69.4766 335.211 69.5316 334.533 69.5846L334.494 69.0861L334.455 68.5876C335.132 68.5347 335.811 68.4799 336.493 68.423L336.535 68.9213ZM330.458 69.3795L330.492 69.8784C329.155 69.9683 327.828 70.0503 326.511 70.1246L326.483 69.6254L326.455 69.1261C327.768 69.0521 329.091 68.9703 330.425 68.8806L330.458 69.3795ZM322.568 69.8245L322.591 70.324C321.223 70.386 319.866 70.4395 318.52 70.4846L318.503 69.9849L318.486 69.4852C319.829 69.4402 321.182 69.3868 322.546 69.325L322.568 69.8245ZM314.494 70.0955L314.505 70.5954C313.177 70.624 311.86 70.6444 310.553 70.6568L310.548 70.1569L310.543 69.6569C311.846 69.6445 313.159 69.6242 314.483 69.5956L314.494 70.0955ZM306.535 70.1697L306.533 70.6697C305.177 70.6654 303.833 70.6524 302.499 70.6309L302.507 70.131L302.515 69.631C303.845 69.6525 305.185 69.6655 306.536 69.6697L306.535 70.1697ZM298.545 70.041L298.53 70.5408C297.189 70.5015 295.858 70.4535 294.538 70.3969L294.56 69.8974L294.581 69.3978C295.896 69.4542 297.222 69.5021 298.56 69.5412L298.545 70.041ZM290.531 69.6966L290.503 70.1957C289.169 70.1198 287.846 70.0352 286.534 69.9419L286.569 69.4432L286.605 68.9444C287.912 69.0373 289.23 69.1217 290.559 69.1974L290.531 69.6966ZM282.596 69.1321L282.553 69.6303C281.202 69.5146 279.862 69.3898 278.533 69.2562L278.583 68.7587L278.633 68.2612C279.957 68.3943 281.292 68.5187 282.638 68.6339L282.596 69.1321ZM274.638 68.3323L274.581 68.8289C273.244 68.6743 271.919 68.5107 270.604 68.3384L270.669 67.8426L270.734 67.3469C272.044 67.5185 273.364 67.6815 274.696 67.8356L274.638 68.3323ZM266.69 67.2896L266.617 67.7843C265.3 67.5907 263.993 67.3884 262.697 67.1776L262.777 66.6841L262.858 66.1905C264.148 66.4005 265.45 66.6021 266.763 66.7949L266.69 67.2896ZM258.813 66.0072L258.725 66.4994C257.401 66.2625 256.088 66.0168 254.785 65.7626L254.881 65.2719L254.977 64.7811C256.274 65.0343 257.582 65.279 258.901 65.515L258.813 66.0072ZM250.998 64.4827L250.895 64.9719C249.569 64.6916 248.254 64.4026 246.95 64.1053L247.061 63.6178L247.172 63.1303C248.471 63.4265 249.781 63.7143 251.102 63.9935L250.998 64.4827ZM243.187 62.703L243.068 63.1887C241.763 62.8699 240.469 62.5429 239.184 62.2081L239.31 61.7243L239.436 61.2404C240.716 61.574 242.005 61.8997 243.305 62.2172L243.187 62.703ZM235.441 60.6843L235.308 61.1662C234.024 60.8107 232.75 60.4475 231.485 60.0771L231.625 59.5972L231.766 59.1174C233.026 59.4864 234.296 59.8483 235.575 60.2025L235.441 60.6843ZM227.773 58.4385L227.625 58.9163C226.348 58.522 225.079 58.1206 223.819 57.7125L223.973 57.2368L224.128 56.7612C225.383 57.1679 226.647 57.5679 227.92 57.9608L227.773 58.4385ZM220.176 55.9783L220.015 56.4519C218.746 56.0216 217.484 55.5848 216.23 55.1419L216.396 54.6705L216.563 54.199C217.813 54.6405 219.071 55.0759 220.336 55.5047L220.176 55.9783ZM212.647 53.3207L212.475 53.7901C211.214 53.3278 209.961 52.8597 208.714 52.3863L208.892 51.9189L209.069 51.4514C210.312 51.9235 211.562 52.3903 212.819 52.8513L212.647 53.3207ZM205.175 50.4851L204.993 50.9507C203.744 50.4615 202.502 49.9675 201.265 49.469L201.452 49.0052L201.638 48.5415C202.873 49.0388 204.112 49.5316 205.358 50.0195L205.175 50.4851ZM197.755 47.4967L197.564 47.9589C196.329 47.4487 195.098 46.9345 193.872 46.417L194.066 45.9563L194.261 45.4957C195.485 46.0123 196.713 46.5254 197.946 47.0346L197.755 47.4967ZM190.388 44.3892L190.191 44.8485C188.966 44.3217 187.744 43.792 186.525 43.2599L186.725 42.8017L186.925 42.3434C188.142 42.8749 189.362 43.4039 190.586 43.9298L190.388 44.3892ZM183.063 41.1931L182.861 41.6504C181.642 41.1118 180.425 40.5713 179.209 40.0295L179.413 39.5729L179.617 39.1162C180.831 39.6576 182.047 40.1976 183.265 40.7357L183.063 41.1931ZM175.763 37.9406L175.558 38.3968C174.342 37.8516 173.127 37.3055 171.912 36.7592L172.117 36.3032L172.322 35.8472C173.537 36.3934 174.752 36.9393 175.967 37.4843L175.763 37.9406ZM168.473 34.665L168.268 35.1211C167.053 34.5753 165.838 34.0297 164.621 33.485L164.826 33.0286L165.03 32.5723C166.247 33.1173 167.463 33.6631 168.678 34.209L168.473 34.665ZM161.177 31.4L160.974 31.8568C159.759 31.3164 158.542 30.7774 157.322 30.2402L157.523 29.7826L157.725 29.325C158.946 29.8628 160.164 30.4023 161.38 30.9431L161.177 31.4ZM153.858 28.1784L153.659 28.6369C152.442 28.1079 151.222 27.5813 149.998 27.0575L150.194 26.5978L150.391 26.1381C151.617 26.6627 152.839 27.1902 154.057 27.7198L153.858 28.1784ZM146.506 25.0342L146.313 25.4952C145.092 24.9826 143.866 24.4734 142.635 23.9679L142.825 23.5054L143.015 23.0429C144.248 23.5494 145.476 24.0597 146.7 24.5732L146.506 25.0342ZM139.116 22.0012L138.93 22.4654C137.7 21.9727 136.464 21.4842 135.221 21.0004L135.402 20.5345L135.583 20.0685C136.829 20.5535 138.069 21.0432 139.302 21.537L139.116 22.0012ZM131.673 19.1051L131.496 19.5729C130.253 19.1037 129.002 18.6397 127.744 18.1811L127.915 17.7114L128.086 17.2416C129.348 17.7014 130.602 18.1668 131.849 18.6373L131.673 19.1051ZM124.167 16.3706L124.001 16.8424C122.746 16.4019 121.483 15.9672 120.211 15.5388L120.371 15.0649L120.531 14.5911C121.806 15.0209 123.074 15.4569 124.333 15.8988L124.167 16.3706ZM116.591 13.819L116.438 14.2948C115.177 13.8885 113.908 13.4885 112.63 13.0955L112.776 12.6175L112.923 12.1396C114.206 12.534 115.48 12.9353 116.745 13.3431L116.591 13.819ZM108.94 11.4673L108.799 11.9472C107.536 11.5781 106.263 11.2159 104.98 10.861L105.113 10.3791L105.247 9.89723C106.534 10.2534 107.812 10.6169 109.08 10.9874L108.94 11.4673ZM101.228 9.33477L101.101 9.81858C99.8304 9.48699 98.5494 9.16272 97.2581 8.84612L97.3772 8.3605L97.4962 7.87489C98.7924 8.19267 100.078 8.51815 101.354 8.85096L101.228 9.33477ZM93.4877 7.4377L93.3759 7.92505C92.0805 7.62796 90.7746 7.33869 89.4577 7.0576L89.562 6.56862L89.6664 6.07963C90.9883 6.36178 92.2992 6.65214 93.5995 6.95035L93.4877 7.4377ZM85.6809 5.77055L85.5839 6.26105C84.2819 6.00347 82.9691 5.75395 81.645 5.5128L81.7346 5.02089L81.8242 4.52898C83.1533 4.77104 84.471 5.02151 85.7779 5.28006L85.6809 5.77055ZM77.7996 4.33469L77.7174 4.82789C76.4225 4.61206 75.1168 4.40427 73.7999 4.20479L73.8747 3.71043L73.9496 3.21607C75.2714 3.41629 76.582 3.62486 77.8818 3.84149L77.7996 4.33469ZM69.8828 3.13618L69.8153 3.6316C68.5153 3.45445 67.2045 3.2854 65.8825 3.12472L65.9428 2.62837L66.0031 2.13202C67.33 2.29329 68.6456 2.46296 69.9503 2.64076L69.8828 3.13618ZM61.9873 2.17637L61.9341 2.67353C60.6068 2.53145 59.2683 2.39778 57.9181 2.27275L57.9642 1.77488L58.0104 1.27701C59.3652 1.40247 60.7085 1.53663 62.0405 1.67921L61.9873 2.17637ZM54.0174 1.43683L53.9782 1.93529C52.6678 1.83211 51.3466 1.73702 50.0142 1.65026L50.0467 1.15132L50.0792 0.652373C51.4161 0.739428 52.7418 0.834836 54.0567 0.938377L54.0174 1.43683ZM46.0092 0.915818L45.9834 1.41515C44.6752 1.34766 43.3563 1.28813 42.0265 1.23676L42.0458 0.737132L42.0651 0.237504C43.3992 0.289042 44.7224 0.348767 46.0349 0.416482L46.0092 0.915818ZM38.0762 0.609016L38.0632 1.10885C36.7313 1.07426 35.3886 1.04778 34.0349 1.0296L34.0416 0.529647L34.0483 0.0296925C35.4062 0.0479266 36.7531 0.0744866 38.0891 0.109185L38.0762 0.609016ZM30.0434 0.500275L30.0427 1.00028C28.7375 0.998555 27.422 1.00447 26.0962 1.01819L26.091 0.518216L26.0858 0.0182429C27.4156 0.00448649 28.7349 -0.001449 30.044 0.000275907L30.0434 0.500275ZM22.0762 0.583016L22.0871 1.0829C20.7467 1.11223 19.3956 1.14945 18.0339 1.19471L18.0173 0.69499L18.0007 0.195266C19.3662 0.149878 20.721 0.112554 22.0653 0.0831358L22.0762 0.583016ZM14.0971 0.846317L14.119 1.34584C12.8042 1.40358 11.4795 1.46873 10.1448 1.54143L10.1176 1.04218L10.0904 0.542915C11.4286 0.470021 12.7568 0.404694 14.0751 0.346798L14.0971 0.846317ZM6.07782 1.28339L6.1102 1.78234C5.43265 1.82631 4.75255 1.8722 4.06986 1.92004L4.03491 1.42126L3.99996 0.922483C4.68436 0.87453 5.36617 0.828521 6.04543 0.784437L6.07782 1.28339Z" fill="black"/>
</g>
<defs>
<filter id="filter0_d_970_225" x="0" y="0" width="539.535" height="280.347" filterUnits="userSpaceOnUse" color-interpolation-filters="sRGB">
<feFlood flood-opacity="0" result="BackgroundImageFix"/>
<feColorMatrix in="SourceAlpha" type="matrix" values="0 0 0 0 0 0 0 0 0 0 0 0 0 0 0 0 0 0 127 0" result="hardAlpha"/>
<feOffset dy="4"/>
<feGaussianBlur stdDeviation="2"/>
<feComposite in2="hardAlpha" operator="out"/>
<feColorMatrix type="matrix" values="0 0 0 0 0 0 0 0 0 0 0 0 0 0 0 0 0 0 0.25 0"/>
<feBlend mode="normal" in2="BackgroundImageFix" result="effect1_dropShadow_970_225"/>
<feBlend mode="normal" in="SourceGraphic" in2="effect1_dropShadow_970_225" result="shape"/>
</filter>
</defs>
</svg>
