<svg width="907" height="907" viewBox="0 0 907 907" fill="none" xmlns="http://www.w3.org/2000/svg">
<g filter="url(#filter0_d_90_7)">
<path d="M766.252 326.52C770.37 283.964 780.22 243.675 762.805 202.751C730.842 127.651 634.428 87.7795 559.51 123.352C521.198 141.492 488.438 168.031 446.244 177.772C332.361 204.057 156.584 64.0161 94.6001 227.058C73.3219 283.002 81.9021 356.723 120.377 403.488C132.73 418.49 147.823 431.551 156.965 448.711C181.98 495.676 146.571 547.284 130.608 591.092C92.6954 694.617 235.639 751.903 313.223 762.461C441.473 780.02 547.266 633.086 674.808 692.948C763.694 734.67 841.696 633.086 825.37 531.502C814.685 465.001 760.592 401.348 765.653 333.576C765.834 331.236 766.034 328.896 766.252 326.52Z" fill="#FFFCF9"/>
<path opacity="0.7" d="M766.252 326.52C770.37 283.964 780.22 243.675 762.805 202.751C730.842 127.651 634.428 87.7795 559.51 123.352C521.198 141.492 488.438 168.031 446.244 177.772C332.361 204.057 156.584 64.0161 94.6001 227.058C73.3219 283.002 81.9021 356.723 120.377 403.488C132.73 418.49 147.823 431.551 156.965 448.711C181.98 495.676 146.571 547.284 130.608 591.092C92.6954 694.617 235.639 751.903 313.223 762.461C441.473 780.02 547.266 633.086 674.808 692.948C763.694 734.67 841.696 633.086 825.37 531.502C814.685 465.001 760.592 401.348 765.653 333.576C765.834 331.236 766.034 328.896 766.252 326.52Z" fill="#26547C"/>
</g>
<path d="M155.587 354.202C190.18 354.202 218.224 326.158 218.224 291.564C218.224 256.971 190.18 228.927 155.587 228.927C120.993 228.927 92.9492 256.971 92.9492 291.564C92.9492 326.158 120.993 354.202 155.587 354.202Z" fill="#26547C" stroke="#2E353A" stroke-linecap="round" stroke-linejoin="round"/>
<path d="M150.925 347.98C185.518 347.98 213.562 319.936 213.562 285.342C213.562 250.749 185.518 222.705 150.925 222.705C116.331 222.705 88.2874 250.749 88.2874 285.342C88.2874 319.936 116.331 347.98 150.925 347.98Z" fill="#26547C" stroke="#2E353A" stroke-linecap="round" stroke-linejoin="round"/>
<path d="M150.925 341.758C182.082 341.758 207.34 316.5 207.34 285.342C207.34 254.185 182.082 228.927 150.925 228.927C119.767 228.927 94.5093 254.185 94.5093 285.342C94.5093 316.5 119.767 341.758 150.925 341.758Z" fill="#2E353A" stroke="#2E353A" stroke-linecap="round" stroke-linejoin="round"/>
<path d="M144.304 242.931C144.304 242.931 138.082 227.367 127.198 216.483C116.314 205.599 71.9432 198.579 71.9432 198.579C79.108 205.489 85.6234 213.043 91.4074 221.145C101.511 235.149 134.943 267.057 134.943 267.057C134.943 267.057 118.617 253.053 103.815 251.493C89.0129 249.933 51.6808 257.715 49.3951 257.715C47.1095 257.715 63.3992 263.937 75.0814 269.379C86.7635 274.821 131.878 279.501 131.878 279.501C131.878 279.501 112.432 284.943 99.2257 289.623C86.0198 294.303 73.5032 328.515 73.5032 328.515C73.5032 328.515 90.6274 312.951 105.411 309.069C120.196 305.187 141.202 298.185 141.202 298.185C141.202 298.185 127.978 312.969 124.876 323.092C121.774 333.214 124.096 356.542 124.096 356.542C124.096 356.542 131.098 334.774 139.66 326.193C148.222 317.613 157.528 302.938 157.528 302.938C161.838 309.963 165.738 317.231 169.21 324.706C175.432 337.93 179.314 357.358 179.314 357.358C179.314 357.358 189.436 335.59 188.656 324.706C187.876 313.822 176.212 294.358 176.212 294.358C176.212 294.358 183.994 288.916 195.658 293.578C207.322 298.24 227.566 317.704 227.566 317.704C227.566 317.704 222.886 292.018 215.104 281.914C207.322 271.81 173.872 268.672 173.872 268.672C173.872 268.672 192.556 257.788 204.22 255.447C215.884 253.107 231.43 258.568 231.43 258.568C231.43 258.568 213.544 233.661 199.54 232.101C185.536 230.541 164.53 252.273 164.53 252.273L170.77 221.145C172.312 213.363 169.21 193.935 169.21 193.935C169.21 193.935 160.648 198.597 150.526 213.381C147.563 217.639 145.486 222.449 144.417 227.525C143.349 232.601 143.31 237.84 144.304 242.931Z" fill="#EF476F"/>
<path opacity="0.5" d="M144.304 242.931C144.304 242.931 138.082 227.367 127.198 216.483C116.314 205.599 71.9432 198.579 71.9432 198.579C79.108 205.489 85.6234 213.043 91.4074 221.145C101.511 235.149 134.943 267.057 134.943 267.057C134.943 267.057 118.617 253.053 103.815 251.493C89.0129 249.933 51.6808 257.715 49.3951 257.715C47.1095 257.715 63.3992 263.937 75.0814 269.379C86.7635 274.821 131.878 279.501 131.878 279.501C131.878 279.501 112.432 284.943 99.2257 289.623C86.0198 294.303 73.5032 328.515 73.5032 328.515C73.5032 328.515 90.6274 312.951 105.411 309.069C120.196 305.187 141.202 298.185 141.202 298.185C141.202 298.185 127.978 312.969 124.876 323.092C121.774 333.214 124.096 356.542 124.096 356.542C124.096 356.542 131.098 334.774 139.66 326.193C148.222 317.613 157.528 302.938 157.528 302.938C161.838 309.963 165.738 317.231 169.21 324.706C175.432 337.93 179.314 357.358 179.314 357.358C179.314 357.358 189.436 335.59 188.656 324.706C187.876 313.822 176.212 294.358 176.212 294.358C176.212 294.358 183.994 288.916 195.658 293.578C207.322 298.24 227.566 317.704 227.566 317.704C227.566 317.704 222.886 292.018 215.104 281.914C207.322 271.81 173.872 268.672 173.872 268.672C173.872 268.672 192.556 257.788 204.22 255.447C215.884 253.107 231.43 258.568 231.43 258.568C231.43 258.568 213.544 233.661 199.54 232.101C185.536 230.541 164.53 252.273 164.53 252.273L170.77 221.145C172.312 213.363 169.21 193.935 169.21 193.935C169.21 193.935 160.648 198.597 150.526 213.381C147.563 217.639 145.486 222.449 144.417 227.525C143.349 232.601 143.31 237.84 144.304 242.931Z" fill="black"/>
<path d="M159.632 219.24C160.176 217.009 160.775 214.778 161.446 212.583" stroke="#2E353A" stroke-width="0.5" stroke-linecap="round" stroke-linejoin="round"/>
<path d="M107.661 219.24C114.917 224.555 123.987 231.938 128.74 238.269C137.302 249.933 154.426 274.839 154.426 274.839C153.935 258.111 155.261 241.378 158.38 224.936" stroke="#2E353A" stroke-width="0.5" stroke-linecap="round" stroke-linejoin="round"/>
<path d="M96.8494 211.803C96.8494 211.803 99.1169 213.254 102.509 215.594" stroke="#2E353A" stroke-width="0.5" stroke-linecap="round" stroke-linejoin="round"/>
<path d="M154.426 274.839C154.426 274.839 183.994 245.271 196.438 242.931C208.882 240.591 219.784 249.933 219.784 249.933" stroke="#2E353A" stroke-width="0.5" stroke-linecap="round" stroke-linejoin="round"/>
<path d="M101.584 299.564C94.3279 304.135 93.7292 306.82 93.7292 306.82" stroke="#2E353A" stroke-width="0.5" stroke-linecap="round" stroke-linejoin="round"/>
<path d="M219.004 302.067C219.004 302.067 214.342 290.385 197.998 284.943C181.654 279.501 156.004 278.721 156.004 278.721C156.004 278.721 119.996 290.512 106.826 296.662" stroke="#2E353A" stroke-width="0.5" stroke-linecap="round" stroke-linejoin="round"/>
<path d="M140.258 274.277C148.966 276.816 155.986 278.721 155.986 278.721" stroke="#2E353A" stroke-width="0.5" stroke-linecap="round" stroke-linejoin="round"/>
<path d="M85.4575 260.454C93.9108 260.962 104.795 262.123 110.854 264.717C115.788 266.839 125.511 269.905 134.689 272.644" stroke="#2E353A" stroke-width="0.5" stroke-linecap="round" stroke-linejoin="round"/>
<path d="M73.5032 260.055C73.5032 260.055 76.3512 260.055 80.5415 260.218" stroke="#2E353A" stroke-width="0.5" stroke-linecap="round" stroke-linejoin="round"/>
<path d="M154.426 283.383C154.426 283.383 132.658 316.035 131.08 323.853C130.145 328.466 129.623 333.152 129.52 337.858" stroke="#2E353A" stroke-width="0.5" stroke-linecap="round" stroke-linejoin="round"/>
<path d="M164.113 293.668C168.303 299.11 173.328 306.366 175.432 312.171C177.881 319.253 179.702 326.538 180.874 333.939" stroke="#2E353A" stroke-width="0.5" stroke-linecap="round" stroke-linejoin="round"/>
<path d="M157.528 285.723C157.528 285.723 159.342 287.646 161.682 290.603" stroke="#2E353A" stroke-width="0.5" stroke-linecap="round" stroke-linejoin="round"/>
<path d="M134.417 249.643C134.417 249.643 130.408 233.317 132.894 218.17C135.379 203.023 167.36 171.405 167.36 171.405C165.582 181.197 164.702 191.13 164.729 201.082C164.729 218.351 156.113 263.774 156.113 263.774C156.113 263.774 161.21 242.876 172.312 232.936C183.413 222.995 218.297 207.54 220.183 206.216C222.07 204.891 212.437 219.44 206.143 230.686C199.848 241.933 165.872 272.1 165.872 272.1C165.872 272.1 184.846 265.171 198.306 261.216C211.766 257.261 241.842 277.832 241.842 277.832C241.842 277.832 218.859 275.184 204.583 280.644C190.307 286.104 169.155 292.671 169.155 292.671C169.155 292.671 188.529 296.97 196.946 303.373C205.363 309.777 217.118 330.148 217.118 330.148C217.118 330.148 198.724 316.525 186.769 314.566C174.815 312.607 158.616 306.058 158.616 306.058C159.23 314.275 160.308 322.451 161.845 330.547C164.512 344.932 172.729 363 172.729 363C172.729 363 151.814 351.209 146.081 341.903C140.349 332.597 138.499 309.994 138.499 309.994C138.499 309.994 128.993 310.103 122.173 320.697C115.352 331.291 110.327 358.9 110.327 358.9C110.327 358.9 99.1531 335.318 99.5703 322.62C99.9875 309.922 125.347 287.827 125.347 287.827C125.347 287.827 103.833 289.877 92.9855 294.775C82.1378 299.673 72.6687 313.187 72.6687 313.187C72.6687 313.187 72.6687 282.531 83.1536 273.098C93.6385 263.665 123.406 269.107 123.406 269.107L100.187 247.466C94.3823 242.024 85.5662 224.428 85.5662 224.428C85.5662 224.428 95.253 223.231 112.087 229.344C116.98 231.057 121.478 233.737 125.315 237.224C129.151 240.711 132.246 244.935 134.417 249.643Z" fill="#EF476F"/>
<path d="M108.151 239.339C106.337 237.834 104.631 236.382 102.817 234.967" stroke="#2E353A" stroke-width="0.5" stroke-linecap="round" stroke-linejoin="round"/>
<path d="M150.362 209.027C147.551 217.589 144.413 228.854 144.34 236.763C144.195 251.275 144.812 281.442 144.812 281.442C135.449 267.572 124.604 254.762 112.468 243.239" stroke="#2E353A" stroke-width="0.5" stroke-linecap="round" stroke-linejoin="round"/>
<path d="M154.825 196.674C154.825 196.674 153.809 199.177 152.43 203.041" stroke="#2E353A" stroke-width="0.5" stroke-linecap="round" stroke-linejoin="round"/>
<path d="M144.812 281.442C144.812 281.442 103.543 274.676 92.0787 280.045C80.6142 285.415 77.2039 299.31 77.2039 299.31" stroke="#2E353A" stroke-width="0.5" stroke-linecap="round" stroke-linejoin="round"/>
<path d="M202.17 270.703C210.678 270.232 212.71 271.955 212.71 271.955" stroke="#2E353A" stroke-width="0.5" stroke-linecap="round" stroke-linejoin="round"/>
<path d="M108.241 341.232C108.241 341.232 105.23 329.023 115.316 315.074C125.402 301.124 145.827 285.524 145.827 285.524C145.827 285.524 181.944 274.077 196.22 271.411" stroke="#2E353A" stroke-width="0.5" stroke-linecap="round" stroke-linejoin="round"/>
<path d="M156.004 272.735C150.417 279.864 145.845 285.524 145.845 285.524" stroke="#2E353A" stroke-width="0.5" stroke-linecap="round" stroke-linejoin="round"/>
<path d="M192.447 229.544C185.88 234.986 177.717 242.242 174.307 247.811C171.532 252.418 165.419 260.509 159.559 268.145" stroke="#2E353A" stroke-width="0.5" stroke-linecap="round" stroke-linejoin="round"/>
<path d="M201.916 222.233C201.916 222.233 199.613 223.902 196.293 226.478" stroke="#2E353A" stroke-width="0.5" stroke-linecap="round" stroke-linejoin="round"/>
<path d="M149.8 288.426C149.8 288.426 186.57 302.249 192.356 307.673C195.807 310.873 198.964 314.376 201.789 318.139" stroke="#2E353A" stroke-width="0.5" stroke-linecap="round" stroke-linejoin="round"/>
<path d="M147.932 302.394C147.678 309.251 147.805 318.049 149.528 324.035C151.666 331.227 154.441 338.214 157.818 344.914" stroke="#2E353A" stroke-width="0.5" stroke-linecap="round" stroke-linejoin="round"/>
<path d="M148.639 292.054C148.639 292.054 148.349 294.63 148.131 298.439" stroke="#2E353A" stroke-width="0.5" stroke-linecap="round" stroke-linejoin="round"/>
<path d="M255.466 332.742H666.645C671.778 332.742 676.702 334.781 680.331 338.411C683.961 342.041 686 346.964 686 352.097V618.755C686 621.535 685.453 624.288 684.389 626.857C683.325 629.425 681.766 631.759 679.8 633.724C677.834 635.69 675.501 637.25 672.932 638.313C670.364 639.377 667.611 639.925 664.831 639.925H257.28C254.5 639.925 251.747 639.377 249.179 638.313C246.61 637.25 244.276 635.69 242.311 633.724C240.345 631.759 238.786 629.425 237.722 626.857C236.658 624.288 236.11 621.535 236.11 618.755V352.097C236.11 346.964 238.15 342.041 241.779 338.411C245.409 334.781 250.332 332.742 255.466 332.742Z" fill="#B7B8B9" stroke="#2E353A" stroke-linecap="round" stroke-linejoin="round"/>
<path d="M405.955 362.981H380.632V379.616H405.955V362.981Z" fill="#2E353A"/>
<path d="M323.908 465.599H300.398V488.927H323.908V465.599Z" fill="#2E353A"/>
<path d="M427.778 383.607H404.087V406.935H427.778V383.607Z" fill="#2E353A"/>
<path d="M376.623 362.981H351.299V379.616H376.623V362.981Z" fill="#2E353A"/>
<path d="M455.459 383.607H431.768V406.935H455.459V383.607Z" fill="#2E353A"/>
<path d="M435.269 362.981H409.946V379.616H435.269V362.981Z" fill="#2E353A"/>
<path d="M309.704 438.262H265.152V461.59H309.704V438.262Z" fill="#2E353A"/>
<path d="M372.396 383.607H348.705V406.935H372.396V383.607Z" fill="#2E353A"/>
<path d="M296.408 465.599H265.152V488.927H296.408V465.599Z" fill="#2E353A"/>
<path d="M464.602 362.981H439.278V379.616H464.602V362.981Z" fill="#2E353A"/>
<path d="M317.015 383.607H293.324V406.935H317.015V383.607Z" fill="#2E353A"/>
<path d="M317.976 362.981H292.653V379.616H317.976V362.981Z" fill="#2E353A"/>
<path d="M347.309 362.981H321.985V379.616H347.309V362.981Z" fill="#2E353A"/>
<path d="M344.696 383.607H321.006V406.935H344.696V383.607Z" fill="#2E353A"/>
<path d="M400.078 383.607H376.387V406.935H400.078V383.607Z" fill="#2E353A"/>
<path d="M581.913 362.981H556.59V379.616H581.913V362.981Z" fill="#2E353A"/>
<path d="M611.227 362.981H585.904V379.616H611.227V362.981Z" fill="#2E353A"/>
<path d="M593.922 383.607H570.231V406.935H593.922V383.607Z" fill="#2E353A"/>
<path d="M621.622 383.607H597.931V406.935H621.622V383.607Z" fill="#2E353A"/>
<path d="M665.43 465.599H630.546V488.927H665.43V465.599Z" fill="#2E353A"/>
<path d="M640.56 362.981H615.236V379.616H640.56V362.981Z" fill="#2E353A"/>
<path d="M289.333 383.607H265.152V406.935H289.333V383.607Z" fill="#2E353A"/>
<path d="M493.934 362.981H468.611V379.616H493.934V362.981Z" fill="#2E353A"/>
<path d="M523.248 362.981H497.925V379.616H523.248V362.981Z" fill="#2E353A"/>
<path d="M510.859 383.607H487.168V406.935H510.859V383.607Z" fill="#2E353A"/>
<path d="M566.24 383.607H542.549V406.935H566.24V383.607Z" fill="#2E353A"/>
<path d="M483.159 383.607H459.468V406.935H483.159V383.607Z" fill="#2E353A"/>
<path d="M538.54 383.607H514.85V406.935H538.54V383.607Z" fill="#2E353A"/>
<path d="M552.581 362.981H527.257V379.616H552.581V362.981Z" fill="#2E353A"/>
<path d="M516.5 465.599H492.991V488.927H516.5V465.599Z" fill="#2E353A"/>
<path d="M639.852 438.262H616.343V461.59H639.852V438.262Z" fill="#2E353A"/>
<path d="M612.334 438.262H588.824V461.59H612.334V438.262Z" fill="#2E353A"/>
<path d="M626.538 465.599H603.028V488.927H626.538V465.599Z" fill="#2E353A"/>
<path d="M599.037 465.599H575.528V488.927H599.037V465.599Z" fill="#2E353A"/>
<path d="M544.001 465.599H520.491V488.927H544.001V465.599Z" fill="#2E353A"/>
<path d="M571.519 465.599H548.01V488.927H571.519V465.599Z" fill="#2E353A"/>
<path d="M584.816 438.262H561.306V461.59H584.816V438.262Z" fill="#2E353A"/>
<path d="M557.315 438.262H533.806V461.59H557.315V438.262Z" fill="#2E353A"/>
<path d="M665.448 362.981H644.569V379.616H665.448V362.981Z" fill="#2E353A"/>
<path d="M288.662 362.981H265.152V379.616H288.662V362.981Z" fill="#2E353A"/>
<path d="M665.448 492.918H265.152V517.171H665.448V492.918Z" fill="#2E353A"/>
<path d="M665.43 383.607H625.612V406.935H665.43V383.607Z" fill="#2E353A"/>
<path d="M665.43 438.262H643.843V461.59H665.43V438.262Z" fill="#2E353A"/>
<path d="M637.204 434.09H633.195V410.944H609.685V434.09H605.695V410.944H582.185V434.09H578.176V410.944H554.667V434.09H550.658V410.944H527.148V434.09H523.158V410.944H499.648V434.09H495.639V410.944H472.13V434.09H468.121V410.944H444.611V434.09H440.621V410.944H417.111V434.09H413.102V410.944H389.593V434.09H385.584V410.944H362.074V434.09H358.084V410.944H334.574V434.09H330.565V410.944H307.056V434.09H303.047V410.944H265.152V434.272H665.43V410.944H637.204V434.09Z" fill="#2E353A"/>
<path d="M447.26 438.262H423.75V461.59H447.26V438.262Z" fill="#2E353A"/>
<path d="M529.797 438.262H506.288V461.59H529.797V438.262Z" fill="#2E353A"/>
<path d="M392.241 438.262H368.732V461.59H392.241V438.262Z" fill="#2E353A"/>
<path d="M406.445 465.599H382.936V488.927H406.445V465.599Z" fill="#2E353A"/>
<path d="M419.742 438.262H396.232V461.59H419.742V438.262Z" fill="#2E353A"/>
<path d="M364.723 438.262H341.213V461.59H364.723V438.262Z" fill="#2E353A"/>
<path d="M351.426 465.599H327.917V488.927H351.426V465.599Z" fill="#2E353A"/>
<path d="M378.926 465.599H355.417V488.927H378.926V465.599Z" fill="#2E353A"/>
<path d="M474.778 438.262H451.269V461.59H474.778V438.262Z" fill="#2E353A"/>
<path d="M488.982 465.599H465.472V488.927H488.982V465.599Z" fill="#2E353A"/>
<path d="M502.279 438.262H478.769V461.59H502.279V438.262Z" fill="#2E353A"/>
<path d="M433.963 465.599H410.454V488.927H433.963V465.599Z" fill="#2E353A"/>
<path d="M461.464 465.599H437.954V488.927H461.464V465.599Z" fill="#2E353A"/>
<path d="M337.205 438.262H313.695V461.59H337.205V438.262Z" fill="#2E353A"/>
<path d="M711.687 165.854H208.011C205.541 165.856 203.105 166.426 200.89 167.52C198.676 168.614 196.742 170.202 195.24 172.162C193.737 174.123 192.705 176.402 192.224 178.825C191.743 181.248 191.826 183.749 192.465 186.135L229.29 323.237C230.207 326.659 232.228 329.683 235.038 331.841C237.849 333.999 241.292 335.17 244.836 335.173H296.244V344.66H625.83V335.227H674.808C678.351 335.224 681.795 334.053 684.605 331.896C687.416 329.738 689.436 326.713 690.354 323.291L727.178 186.189C727.827 183.804 727.918 181.302 727.444 178.876C726.971 176.451 725.946 174.167 724.448 172.201C722.95 170.235 721.02 168.64 718.807 167.539C716.595 166.439 714.158 165.862 711.687 165.854Z" fill="#2E353A" stroke="#2E353A" stroke-linecap="round" stroke-linejoin="round"/>
<path d="M654.727 323.073H264.971L225.988 182.797H693.692L654.727 323.073Z" fill="#FFFCF9" stroke="#2E353A" stroke-linecap="round" stroke-linejoin="round"/>
<path d="M290.839 261.506V263.32H283.964V261.506H290.839Z" fill="#2E353A"/>
<path d="M299.401 261.506V263.32H292.508V261.506H299.401Z" fill="#2E353A"/>
<path d="M307.963 261.506V263.32H301.124V261.506H307.963Z" fill="#2E353A"/>
<path d="M316.507 261.506V263.32H309.632V261.506H316.507Z" fill="#2E353A"/>
<path d="M325.069 261.506V263.32H318.176V261.506H325.069Z" fill="#2E353A"/>
<path d="M333.631 261.506V263.32H326.738V261.506H333.631Z" fill="#2E353A"/>
<path d="M342.175 261.506V263.32H335.3V261.506H342.175Z" fill="#2E353A"/>
<path d="M350.646 271.066L343.064 250.858H344.878L352.46 271.066H350.646Z" fill="#2E353A"/>
<path d="M283.909 232.083V233.897H277.034V232.083H283.909Z" fill="#2E353A"/>
<path d="M292.471 232.083V233.897H285.596V232.083H292.471Z" fill="#2E353A"/>
<path d="M301.124 232.083V233.897H294.231V232.083H301.124Z" fill="#2E353A"/>
<path d="M309.595 232.083V233.897H302.702V232.083H309.595Z" fill="#2E353A"/>
<path d="M318.139 232.083V233.897H311.264V232.083H318.139Z" fill="#2E353A"/>
<path d="M332.615 232.083V233.897H325.722V232.083H332.615Z" fill="#2E353A"/>
<path d="M341.159 232.083V233.897H334.284V232.083H341.159Z" fill="#2E353A"/>
<path d="M349.721 232.083V233.897H342.846V232.083H349.721Z" fill="#2E353A"/>
<path d="M358.283 232.083V233.897H351.39V232.083H358.283Z" fill="#2E353A"/>
<path d="M366.827 232.083V233.897H359.952V232.083H366.827Z" fill="#2E353A"/>
<path d="M375.389 232.083V233.897H368.514V232.083H375.389Z" fill="#2E353A"/>
<path d="M383.951 232.083V233.897H377.058V232.083H383.951Z" fill="#2E353A"/>
<path d="M398.409 232.083V233.897H391.534V232.083H398.409Z" fill="#2E353A"/>
<path d="M406.971 232.083V233.897H400.078V232.083H406.971Z" fill="#2E353A"/>
<path d="M415.533 232.083V233.897H408.64V232.083H415.533Z" fill="#2E353A"/>
<path d="M429.918 232.083V233.897H423.043V232.083H429.918Z" fill="#2E353A"/>
<path d="M438.553 232.083V233.897H431.732V232.083H438.553Z" fill="#2E353A"/>
<path d="M447.115 232.083V233.897H440.222V232.083H447.115Z" fill="#2E353A"/>
<path d="M479.295 232.083V233.897H472.42V232.083H479.295Z" fill="#2E353A"/>
<path d="M487.857 232.083V233.897H480.964V232.083H487.857Z" fill="#2E353A"/>
<path d="M496.419 232.083V233.897H489.526V232.083H496.419Z" fill="#2E353A"/>
<path d="M504.963 232.083V233.897H498.088V232.083H504.963Z" fill="#2E353A"/>
<path d="M513.525 232.083V233.897H506.632V232.083H513.525Z" fill="#2E353A"/>
<path d="M527.983 232.083V233.897H521.108V232.083H527.983Z" fill="#2E353A"/>
<path d="M536.545 232.083V233.897H529.688V232.083H536.545Z" fill="#2E353A"/>
<path d="M545.107 232.083V233.897H538.214V232.083H545.107Z" fill="#2E353A"/>
<path d="M559.565 232.083V233.897H552.69V232.083H559.565Z" fill="#2E353A"/>
<path d="M574.04 232.083V233.897H567.147V232.083H574.04Z" fill="#2E353A"/>
<path d="M688.758 530.214L669.348 605.096L687.706 610.484L688.758 530.214Z" fill="#FFFCF9" stroke="#2E353A" stroke-linecap="round" stroke-linejoin="round"/>
<path d="M697.465 451.069C695.275 447.704 694.475 443.62 695.234 439.677C696.231 432.294 705.138 430.607 705.138 430.607C705.138 430.607 707.079 429.138 714.208 431.841C721.337 434.544 776.465 442.017 811.692 446.788C846.92 451.559 858.33 448.475 857.841 460.575C857.351 472.674 826.44 581.26 825.969 584.67C825.497 588.081 697.465 451.069 697.465 451.069Z" fill="#FFFCF9" stroke="#2E353A" stroke-miterlimit="10"/>
<path d="M845.64 471.161L697.45 451.073L673.503 627.719L821.694 647.807L845.64 471.161Z" fill="#FFFCF9" stroke="#2E353A" stroke-linecap="round" stroke-linejoin="round"/>
<path d="M818.096 506.396L826.712 507.575" stroke="#2E353A" stroke-width="0.5" stroke-linecap="round" stroke-linejoin="round"/>
<path d="M764.129 499.086L811.275 505.489" stroke="#2E353A" stroke-width="0.5" stroke-linecap="round" stroke-linejoin="round"/>
<path d="M706.988 491.34L757.309 498.161" stroke="#2E353A" stroke-width="0.5" stroke-linecap="round" stroke-linejoin="round"/>
<path d="M804.6 520.564L824.59 523.285" stroke="#2E353A" stroke-width="0.5" stroke-linecap="round" stroke-linejoin="round"/>
<path d="M704.866 507.049L784.156 517.788" stroke="#2E353A" stroke-width="0.5" stroke-linecap="round" stroke-linejoin="round"/>
<path d="M745.101 528.491L822.468 538.976" stroke="#2E353A" stroke-width="0.5" stroke-linecap="round" stroke-linejoin="round"/>
<path d="M702.726 522.74L737.137 527.421" stroke="#2E353A" stroke-width="0.5" stroke-linecap="round" stroke-linejoin="round"/>
<path d="M770.805 547.973L820.327 554.685" stroke="#2E353A" stroke-width="0.5" stroke-linecap="round" stroke-linejoin="round"/>
<path d="M728.775 542.259L765.127 547.193" stroke="#2E353A" stroke-width="0.5" stroke-linecap="round" stroke-linejoin="round"/>
<path d="M700.603 538.45L722.516 541.425" stroke="#2E353A" stroke-width="0.5" stroke-linecap="round" stroke-linejoin="round"/>
<path d="M800.482 567.982L818.205 570.376" stroke="#2E353A" stroke-width="0.5" stroke-linecap="round" stroke-linejoin="round"/>
<path d="M698.481 554.159L788.564 566.367" stroke="#2E353A" stroke-width="0.5" stroke-linecap="round" stroke-linejoin="round"/>
<path d="M765.98 579.283L816.082 586.085" stroke="#2E353A" stroke-width="0.5" stroke-linecap="round" stroke-linejoin="round"/>
<path d="M696.34 569.85L757.454 578.14" stroke="#2E353A" stroke-width="0.5" stroke-linecap="round" stroke-linejoin="round"/>
<path d="M781.453 597.386L813.942 601.776" stroke="#2E353A" stroke-width="0.5" stroke-linecap="round" stroke-linejoin="round"/>
<path d="M715.569 588.443L773.508 596.298" stroke="#2E353A" stroke-width="0.5" stroke-linecap="round" stroke-linejoin="round"/>
<path d="M694.218 585.559L708.748 587.518" stroke="#2E353A" stroke-width="0.5" stroke-linecap="round" stroke-linejoin="round"/>
<path d="M845.651 471.168C845.651 471.168 848.19 446.534 857.26 456.439" stroke="#2E353A" stroke-linecap="round" stroke-linejoin="round"/>
<path d="M795.403 660.931L795.24 676.586L786.115 663.706L749.49 540.518L758.778 537.742L795.403 660.931Z" fill="#FFFCF9" stroke="#2E353A" stroke-linecap="round" stroke-linejoin="round"/>
<path d="M755.143 543.006L750.075 544.484L786.061 667.865L791.129 666.387L755.143 543.006Z" fill="#FFFCF9" stroke="#2E353A" stroke-width="0.5" stroke-linecap="round" stroke-linejoin="round"/>
<path d="M795.403 660.967L786.133 663.724L795.24 676.586L795.403 660.967Z" stroke="#2E353A" stroke-linecap="round" stroke-linejoin="round"/>
<path d="M790.686 670.146L795.239 676.586L795.33 668.767L790.686 670.146Z" fill="#2E353A" stroke="#2E353A" stroke-linecap="round" stroke-linejoin="round"/>
<path d="M750.035 525.334C748.806 525.704 747.773 526.545 747.161 527.673C746.549 528.801 746.409 530.125 746.769 531.357L749.49 540.518L758.778 537.76L756.057 528.6C755.687 527.371 754.847 526.338 753.719 525.726C752.59 525.114 751.266 524.974 750.035 525.334Z" fill="#FFFCF9" stroke="#2E353A" stroke-linecap="round" stroke-linejoin="round"/>
<path d="M750.035 525.334C748.806 525.704 747.773 526.545 747.161 527.673C746.549 528.801 746.409 530.125 746.769 531.357L748.075 535.729L757.345 532.971L756.057 528.6C755.687 527.371 754.847 526.338 753.719 525.726C752.59 525.114 751.266 524.974 750.035 525.334Z" fill="#2E353A" stroke="#2E353A" stroke-linecap="round" stroke-linejoin="round"/>
<path d="M293.233 452.575C292.072 454.207 290.929 455.913 289.787 457.708" stroke="#FFFCF9" stroke-linecap="round" stroke-linejoin="round"/>
<path d="M312.208 430.734C307.153 435.419 302.477 440.496 298.222 445.917" stroke="#FFFCF9" stroke-linecap="round" stroke-linejoin="round"/>
<path d="M291.619 440.367C286.663 447.318 282.172 454.59 278.177 462.135" stroke="#FFFCF9" stroke-linecap="round" stroke-linejoin="round"/>
<path d="M419.56 480.257C418.417 481.889 417.256 483.594 416.114 485.372" stroke="#FFFCF9" stroke-linecap="round" stroke-linejoin="round"/>
<path d="M438.535 458.416C433.489 463.105 428.819 468.181 424.567 473.599" stroke="#FFFCF9" stroke-linecap="round" stroke-linejoin="round"/>
<path d="M417.964 468.012C413.011 475.003 408.521 482.311 404.522 489.889" stroke="#FFFCF9" stroke-linecap="round" stroke-linejoin="round"/>
<path d="M600.634 435.36C598.983 434.235 597.241 433.111 595.446 431.986" stroke="#FFFCF9" stroke-linecap="round" stroke-linejoin="round"/>
<path d="M622.764 454.008C617.994 449.039 612.845 444.448 607.364 440.276" stroke="#FFFCF9" stroke-linecap="round" stroke-linejoin="round"/>
<path d="M612.824 433.546C605.765 428.698 598.396 424.317 590.766 420.431" stroke="#FFFCF9" stroke-linecap="round" stroke-linejoin="round"/>
<path d="M414.046 547.828C413.102 554.649 411.687 564.154 410.272 569.796" stroke="#2E353A" stroke-linecap="round" stroke-linejoin="round"/>
<path d="M415.098 539.538C415.098 539.538 414.953 540.826 414.681 542.912" stroke="#2E353A" stroke-linecap="round" stroke-linejoin="round"/>
<path d="M419.941 558.893C417.96 565.501 415.536 571.968 412.685 578.249" stroke="#2E353A" stroke-linecap="round" stroke-linejoin="round"/>
<path d="M510.641 568.562C510.641 568.562 511.856 584.289 520.31 592.761" stroke="#2E353A" stroke-linecap="round" stroke-linejoin="round"/>
<path d="M509.426 584.289C509.426 584.289 513.054 595.173 520.31 600.017" stroke="#2E353A" stroke-linecap="round" stroke-linejoin="round"/>
<g style="mix-blend-mode:multiply">
<path d="M263.03 668.35C263.03 668.35 271.084 661.874 271.084 606.202C271.084 550.531 280.354 509.861 291.782 492.029C303.21 474.198 313.895 467.051 318.901 467.051C323.908 467.051 320.316 473.472 313.187 482.742C306.058 492.011 299.637 497.018 296.77 508.446C293.904 519.874 293.922 534.132 297.496 532.699C301.07 531.266 306.766 502.732 311.754 492.029C316.743 481.327 328.896 467.758 336.025 461.337C343.154 454.915 358.864 435.65 365.993 440.639C373.122 445.627 368.859 452.774 364.578 455.622C360.297 458.47 343.154 475.576 335.318 486.315C327.481 497.054 322.475 524.137 326.756 524.845C331.037 525.552 343.88 485.608 351.009 477.046C358.138 468.484 386.69 444.92 393.112 444.212C399.534 443.505 400.259 453.482 394.545 458.489C388.831 463.495 369.566 484.882 363.145 497.725C356.723 510.568 353.857 534.132 359.517 528.418C365.176 522.704 374.5 499.158 382.355 491.304C390.21 483.449 413.755 458.489 419.469 461.337C425.184 464.184 423.75 471.332 418.762 476.32C413.773 481.309 394.491 508.446 389.502 522.704C384.514 536.962 378.781 576.943 381.647 571.247C384.514 565.551 393.783 536.273 398.772 524.083C403.76 511.893 413.755 506.251 415.188 511.947C416.621 517.643 413.755 520.509 410.182 533.37C406.608 546.232 406.554 580.534 395.924 599.727C385.294 618.919 342.628 659.988 336.932 674.246C332.806 684.066 327.88 693.531 322.203 702.544" fill="#FFFCF9"/>
</g>
<g style="mix-blend-mode:multiply">
<path d="M659.48 673.175C659.48 673.175 651.226 661.874 651.226 606.202C651.226 550.531 641.939 509.861 630.528 492.029C619.118 474.198 608.398 467.051 603.409 467.051C598.421 467.051 601.976 473.472 609.123 482.742C616.27 492.011 622.674 497.018 625.449 508.446C628.225 519.874 628.315 534.132 624.742 532.699C621.168 531.266 615.472 502.732 610.466 492.029C605.459 481.327 593.341 467.758 586.212 461.337C579.083 454.915 563.374 435.65 556.227 440.639C549.08 445.627 553.379 452.774 557.66 455.622C561.941 458.47 579.065 475.576 586.92 486.315C594.775 497.054 599.763 524.137 595.482 524.845C591.201 525.552 578.412 485.608 571.283 477.082C564.154 468.556 535.584 444.956 529.162 444.249C522.741 443.541 522.033 453.518 527.747 458.525C533.461 463.531 552.726 484.918 559.148 497.762C565.569 510.605 568.417 534.169 562.776 528.454C557.134 522.74 547.792 499.195 539.955 491.34C532.119 483.485 508.555 458.525 502.841 461.373C497.127 464.221 498.56 471.368 503.548 476.356C508.537 481.345 527.82 508.482 532.808 522.74C537.797 536.998 543.511 576.979 540.663 571.283C537.815 565.587 528.527 536.309 523.539 524.119C518.55 511.929 508.555 506.287 507.122 511.983C505.689 517.679 508.555 520.545 512.111 533.407C515.666 546.268 515.739 580.571 526.387 599.763C537.035 618.955 578.485 656.414 584.199 670.69C589.913 684.966 600.253 707.46 600.253 707.46" fill="#FFFCF9"/>
</g>
<path d="M260.309 682.064C260.309 682.064 271.012 647.108 271.012 591.364C271.012 535.62 280.281 495.022 291.709 477.191C303.138 459.359 313.822 452.212 318.829 452.212C323.835 452.212 320.244 458.634 313.115 467.903C305.986 477.173 299.564 482.179 296.698 493.589C293.832 504.999 293.85 519.294 297.424 517.861C300.997 516.428 306.693 487.893 311.682 477.191C316.67 466.488 328.824 452.92 335.953 446.498C343.082 440.076 358.791 420.812 365.92 425.8C373.049 430.789 368.786 437.936 364.505 440.784C360.224 443.632 343.082 460.738 335.245 471.477C327.409 482.216 322.402 509.299 326.683 510.006C330.964 510.714 343.808 470.769 350.937 462.189C358.066 453.609 386.618 430.081 393.039 429.374C399.461 428.666 400.187 438.643 394.473 443.65C388.758 448.657 369.494 470.044 363.072 482.887C356.651 495.73 353.785 519.294 359.444 513.58C365.104 507.866 374.428 484.32 382.282 476.465C390.137 468.611 413.683 443.65 419.397 446.498C425.111 449.346 423.678 456.493 418.689 461.482C413.701 466.47 394.418 493.589 389.43 507.866C384.441 522.142 378.709 562.104 381.575 556.39C384.441 550.676 393.711 521.434 398.699 509.226C403.688 497.018 413.683 491.376 415.116 497.09C416.549 502.805 413.683 505.652 410.109 518.496C406.536 531.339 406.481 565.66 395.851 584.87C385.221 604.08 343.753 656.233 338.039 670.509C332.325 684.785 319.482 716.185 319.482 716.185" fill="#FFFCF9"/>
<path d="M260.309 682.064C260.309 682.064 271.012 647.108 271.012 591.364C271.012 535.62 280.281 495.022 291.709 477.191C303.138 459.359 313.822 452.212 318.829 452.212C323.835 452.212 320.244 458.634 313.115 467.903C305.986 477.173 299.564 482.179 296.698 493.589C293.832 504.999 293.85 519.294 297.424 517.861C300.997 516.428 306.693 487.893 311.682 477.191C316.67 466.488 328.824 452.92 335.953 446.498C343.082 440.076 358.791 420.812 365.92 425.8C373.049 430.789 368.786 437.936 364.505 440.784C360.224 443.632 343.082 460.738 335.245 471.477C327.409 482.216 322.402 509.299 326.683 510.006C330.964 510.714 343.808 470.769 350.937 462.189C358.066 453.609 386.618 430.081 393.039 429.374C399.461 428.666 400.187 438.643 394.473 443.65C388.758 448.657 369.494 470.044 363.072 482.887C356.651 495.73 353.784 519.294 359.444 513.58C365.104 507.866 374.428 484.32 382.282 476.465C390.137 468.611 413.683 443.65 419.397 446.498C425.111 449.346 423.678 456.493 418.689 461.482C413.701 466.47 394.418 493.589 389.43 507.866C384.441 522.142 378.709 562.104 381.575 556.39C384.441 550.676 393.711 521.434 398.699 509.226C403.688 497.018 413.683 491.376 415.116 497.09C416.549 502.805 413.683 505.652 410.109 518.496C406.536 531.339 406.481 565.66 395.851 584.87C385.221 604.08 343.753 656.233 338.039 670.509C332.325 684.785 319.482 716.185 319.482 716.185" stroke="#2E353A" stroke-linecap="round" stroke-linejoin="round"/>
<path d="M661.911 682.064C661.911 682.064 651.208 647.108 651.208 591.364C651.208 535.62 641.92 495.022 630.51 477.191C619.1 459.359 608.379 452.212 603.391 452.212C598.402 452.212 601.958 458.634 609.105 467.903C616.252 477.173 622.656 482.179 625.431 493.589C628.206 504.999 628.297 519.294 624.724 517.861C621.15 516.428 615.454 487.893 610.447 477.191C605.441 466.488 593.323 452.92 586.194 446.498C579.065 440.076 563.356 420.812 556.209 425.8C549.062 430.789 553.361 437.936 557.642 440.784C561.923 443.632 579.047 460.738 586.902 471.477C594.756 482.216 599.745 509.299 595.464 510.006C591.183 510.714 578.34 470.769 571.211 462.189C564.082 453.609 535.511 430.081 529.089 429.374C522.668 428.666 521.96 438.643 527.675 443.65C533.389 448.657 552.653 470.044 559.075 482.887C565.496 495.73 568.344 519.294 562.703 513.58C557.061 507.866 547.719 484.32 539.883 476.465C532.046 468.611 508.482 443.65 502.768 446.498C497.054 449.346 498.487 456.493 503.476 461.482C508.464 466.47 527.747 493.589 532.736 507.866C537.724 522.142 543.438 562.104 540.59 556.39C537.742 550.676 528.455 521.434 523.466 509.226C518.478 497.018 508.482 491.376 507.049 497.09C505.616 502.805 508.482 505.652 512.038 518.496C515.593 531.339 515.666 565.66 526.314 584.87C536.962 604.08 578.412 656.233 584.126 670.509C589.84 684.785 602.683 716.185 602.683 716.185" fill="#FFFCF9"/>
<path d="M661.911 682.064C661.911 682.064 651.208 647.108 651.208 591.364C651.208 535.62 641.92 495.022 630.51 477.191C619.1 459.359 608.379 452.212 603.391 452.212C598.402 452.212 601.958 458.634 609.105 467.903C616.252 477.173 622.656 482.179 625.431 493.589C628.206 504.999 628.297 519.294 624.724 517.861C621.15 516.428 615.454 487.893 610.447 477.191C605.441 466.488 593.323 452.92 586.194 446.498C579.065 440.076 563.356 420.812 556.209 425.8C549.062 430.789 553.361 437.936 557.642 440.784C561.923 443.632 579.047 460.738 586.902 471.477C594.756 482.216 599.745 509.299 595.464 510.006C591.183 510.714 578.34 470.769 571.211 462.189C564.082 453.609 535.511 430.081 529.089 429.374C522.668 428.666 521.96 438.643 527.675 443.65C533.389 448.657 552.653 470.044 559.075 482.887C565.496 495.73 568.344 519.294 562.703 513.58C557.061 507.866 547.719 484.32 539.883 476.465C532.046 468.611 508.482 443.65 502.768 446.498C497.054 449.346 498.487 456.493 503.476 461.482C508.464 466.47 527.747 493.589 532.736 507.866C537.724 522.142 543.438 562.104 540.59 556.39C537.742 550.676 528.455 521.434 523.466 509.226C518.478 497.018 508.482 491.376 507.049 497.09C505.616 502.805 508.482 505.652 512.038 518.496C515.593 531.339 515.666 565.66 526.314 584.87C536.962 604.08 578.412 656.233 584.126 670.509C589.84 684.785 602.683 716.185 602.683 716.185" stroke="#2E353A" stroke-linecap="round" stroke-linejoin="round"/>
<path d="M215.141 790.904H323.981C325.396 785.462 327.173 779.367 329.423 772.764C337.985 747.114 365.703 715.043 365.703 715.043C345.837 697.546 322.493 684.453 297.206 676.622C255.484 663.779 224.936 667.552 224.936 667.552C230.56 690.737 231.178 714.855 226.75 738.298C221.308 764.71 217.68 781.417 215.141 790.904Z" fill="#2E353A" stroke="#2E353A" stroke-linecap="round" stroke-linejoin="round"/>
<path d="M597.532 790.904H710.617C706.989 781.507 699.152 761.1 691.316 740.692C680.613 712.902 684.894 675.497 680.613 675.497C676.332 675.497 628.243 672.287 604.733 679.76C581.224 687.234 554.486 708.621 554.486 708.621C566.59 722.685 576.995 738.126 585.487 754.624C590.945 766.189 594.989 778.371 597.532 790.904Z" fill="#2E353A" stroke="#2E353A" stroke-linecap="round" stroke-linejoin="round"/>
<path d="M283.129 689.683C282.349 686.599 270.74 691.243 270.74 691.243C270.74 691.243 274.622 676.549 268.436 676.549C262.25 676.549 261.47 687.433 261.47 687.433C261.47 687.433 249.861 682.808 249.861 689.755C249.861 696.703 257.588 696.576 257.588 696.576C257.588 696.576 248.3 708.186 255.266 710.489C262.232 712.793 266.858 704.304 266.858 704.304C266.858 704.304 271.502 712.049 277.742 708.948C283.982 705.846 279.284 698.898 279.284 698.898C279.284 698.898 283.891 692.785 283.129 689.683ZM267.656 701.292C267.072 701.163 266.537 700.87 266.112 700.449C265.687 700.029 265.389 699.496 265.253 698.914C265.118 698.331 265.149 697.722 265.345 697.157C265.54 696.591 265.891 696.093 266.358 695.718C266.824 695.344 267.387 695.109 267.981 695.04C268.575 694.972 269.177 695.072 269.716 695.331C270.256 695.589 270.711 695.995 271.03 696.501C271.349 697.006 271.519 697.592 271.52 698.191C271.389 699.101 270.917 699.928 270.2 700.504C269.482 701.08 268.573 701.362 267.656 701.292ZM300.145 776.392C299.365 773.308 287.755 777.952 287.755 777.952C287.755 777.952 291.637 763.259 285.433 763.259C279.229 763.259 278.485 774.143 278.485 774.143C278.485 774.143 266.876 769.499 266.876 776.446C266.876 783.394 274.622 783.412 274.622 783.412C274.622 783.412 265.334 795.022 272.3 797.344C279.265 799.666 283.891 791.14 283.891 791.14C283.891 791.14 288.535 798.886 294.775 795.784C301.015 792.682 296.317 785.734 296.317 785.734C296.317 785.734 300.906 779.403 300.145 776.392ZM284.671 788.002C284.087 787.872 283.552 787.58 283.127 787.159C282.702 786.738 282.404 786.205 282.269 785.623C282.133 785.04 282.165 784.431 282.36 783.866C282.556 783.301 282.907 782.802 283.373 782.427C283.84 782.053 284.402 781.818 284.997 781.749C285.591 781.681 286.192 781.781 286.732 782.04C287.271 782.298 287.727 782.704 288.046 783.21C288.365 783.716 288.534 784.302 288.535 784.9C288.404 785.803 287.929 786.621 287.209 787.182C286.489 787.744 285.579 788.005 284.671 787.911V788.002ZM232.065 788.002C231.285 784.9 219.694 789.544 219.694 789.544C219.694 789.544 223.557 774.85 217.372 774.85C211.186 774.85 210.406 785.734 210.406 785.734C210.406 785.734 198.796 781.09 198.796 788.056C198.796 795.022 206.542 795.022 206.542 795.022C206.542 795.022 197.254 806.613 204.22 808.935C211.186 811.257 215.812 802.749 215.812 802.749C215.812 802.749 220.456 810.477 226.696 807.393C232.936 804.309 228.256 797.344 228.256 797.344C228.256 797.344 232.845 790.995 232.083 787.911L232.065 788.002ZM216.592 799.593C216.007 799.463 215.471 799.17 215.046 798.748C214.621 798.327 214.323 797.793 214.188 797.21C214.053 796.626 214.086 796.017 214.283 795.451C214.48 794.885 214.833 794.387 215.301 794.013C215.769 793.64 216.333 793.406 216.928 793.339C217.524 793.273 218.126 793.376 218.665 793.637C219.204 793.898 219.658 794.306 219.975 794.815C220.292 795.323 220.458 795.91 220.456 796.509C220.32 797.406 219.846 798.217 219.13 798.774C218.415 799.331 217.512 799.592 216.61 799.502L216.592 799.593ZM316.362 727.668H324.869C331.055 727.668 334.919 734.634 334.919 734.634C321.786 738.407 316.38 727.577 316.38 727.577L316.362 727.668ZM307.854 788.002H316.362C322.547 788.002 326.411 794.967 326.411 794.967C313.278 798.74 307.872 787.911 307.872 787.911L307.854 788.002ZM233.625 776.392H242.133C248.319 776.392 252.182 783.358 252.182 783.358C239.031 787.131 233.625 776.392 233.625 776.392ZM274.749 721.809L279.719 728.72C283.347 733.763 279.918 740.946 279.918 740.946C269.107 732.439 274.749 721.718 274.749 721.718V721.809ZM232.192 744.919L236.074 737.355C238.922 731.913 246.867 731.586 246.867 731.586C244.201 745.046 232.192 744.919 232.192 744.919Z" fill="#FFFCF9"/>
<path d="M647.399 704.376C646.619 701.292 635.009 705.936 635.009 705.936C635.009 705.936 638.891 691.243 632.705 691.243C626.52 691.243 625.74 702.127 625.74 702.127C625.74 702.127 614.13 697.501 614.13 704.449C614.13 711.396 621.876 711.414 621.876 711.414C621.876 711.414 612.588 723.024 619.554 725.346C626.52 727.668 631.145 719.142 631.145 719.142C631.145 719.142 635.789 726.888 642.029 723.786C648.269 720.684 643.571 713.736 643.571 713.736C643.571 713.736 648.161 707.46 647.399 704.376ZM631.925 715.986C631.341 715.856 630.806 715.564 630.381 715.143C629.956 714.722 629.658 714.19 629.523 713.607C629.387 713.024 629.419 712.415 629.614 711.85C629.81 711.285 630.161 710.786 630.627 710.412C631.094 710.037 631.656 709.802 632.251 709.733C632.845 709.665 633.446 709.766 633.986 710.024C634.525 710.282 634.981 710.688 635.3 711.194C635.619 711.7 635.788 712.286 635.789 712.884C635.68 713.804 635.214 714.644 634.491 715.224C633.768 715.804 632.847 716.078 631.925 715.986ZM683.733 764.71C682.971 761.608 671.362 766.252 671.362 766.252C671.362 766.252 675.225 751.558 669.04 751.558C662.854 751.558 662.092 762.442 662.092 762.442C662.092 762.442 650.482 757.798 650.482 764.764C650.482 771.73 658.21 771.73 658.21 771.73C658.21 771.73 648.941 783.321 655.906 785.643C662.872 787.965 667.498 779.458 667.498 779.458C667.498 779.458 672.142 787.185 678.382 784.101C684.622 781.018 679.924 774.052 679.924 774.052C679.924 774.052 684.513 767.794 683.733 764.71ZM668.278 776.392C667.693 776.262 667.157 775.969 666.732 775.547C666.307 775.126 666.009 774.592 665.874 774.009C665.739 773.425 665.772 772.815 665.969 772.25C666.166 771.684 666.519 771.186 666.987 770.812C667.455 770.438 668.019 770.205 668.614 770.138C669.21 770.072 669.812 770.175 670.351 770.436C670.89 770.697 671.344 771.105 671.661 771.613C671.978 772.122 672.144 772.709 672.142 773.308C672.028 774.225 671.56 775.061 670.838 775.637C670.116 776.213 669.197 776.484 668.278 776.392ZM645.077 788.002C644.297 784.9 632.705 789.543 632.705 789.543C632.705 789.543 636.569 774.85 630.383 774.85C624.198 774.85 623.418 785.734 623.418 785.734C623.418 785.734 611.808 781.09 611.808 788.056C611.808 795.022 619.554 795.022 619.554 795.022C619.554 795.022 610.266 806.613 617.232 808.935C624.198 811.257 628.823 802.749 628.823 802.749C628.823 802.749 633.467 810.477 639.707 807.393C645.947 804.309 641.267 797.344 641.267 797.344C641.267 797.344 645.784 790.995 645.077 787.911V788.002ZM629.603 799.593C629.019 799.463 628.483 799.17 628.057 798.748C627.632 798.327 627.335 797.793 627.2 797.21C627.065 796.626 627.098 796.016 627.295 795.451C627.491 794.885 627.844 794.387 628.312 794.013C628.781 793.64 629.345 793.406 629.94 793.339C630.535 793.273 631.137 793.376 631.676 793.637C632.215 793.898 632.669 794.306 632.986 794.815C633.303 795.323 633.47 795.91 633.467 796.509C633.332 797.409 632.855 798.223 632.135 798.78C631.416 799.338 630.509 799.596 629.603 799.502V799.593ZM680.649 742.361H689.157C695.343 742.361 699.207 749.327 699.207 749.327C686.055 753.1 680.649 742.271 680.649 742.271V742.361ZM589.387 786.369H597.895C604.08 786.369 607.944 793.317 607.944 793.317C594.793 797.199 589.387 786.369 589.387 786.369ZM639.018 736.484L643.988 743.395C647.616 748.438 644.188 755.622 644.188 755.622C633.376 747.132 639.018 736.484 639.018 736.484ZM689.32 779.73L694.272 786.641C697.9 791.666 694.472 798.867 694.472 798.867C683.661 790.432 689.32 779.73 689.32 779.73ZM596.389 759.612L600.271 752.048C603.119 746.606 611.155 746.28 611.155 746.28C608.47 759.739 596.371 759.612 596.371 759.612H596.389Z" fill="#FFFCF9"/>
<defs>
<filter id="filter0_d_90_7" x="74.229" y="96.1885" width="774.318" height="683.74" filterUnits="userSpaceOnUse" color-interpolation-filters="sRGB">
<feFlood flood-opacity="0" result="BackgroundImageFix"/>
<feColorMatrix in="SourceAlpha" type="matrix" values="0 0 0 0 0 0 0 0 0 0 0 0 0 0 0 0 0 0 127 0" result="hardAlpha"/>
<feOffset dx="6" dy="1"/>
<feGaussianBlur stdDeviation="7.5"/>
<feComposite in2="hardAlpha" operator="out"/>
<feColorMatrix type="matrix" values="0 0 0 0 0 0 0 0 0 0 0 0 0 0 0 0 0 0 0.2 0"/>
<feBlend mode="normal" in2="BackgroundImageFix" result="effect1_dropShadow_90_7"/>
<feBlend mode="normal" in="SourceGraphic" in2="effect1_dropShadow_90_7" result="shape"/>
</filter>
</defs>
</svg>
